<svg width="47.578072mm" height="47.578072mm" viewBox="0 0 47.578072 47.578072" xmlns="http://www.w3.org/2000/svg">
<g transform="translate(-33.677963,-32.248241)">
    <g transform="translate(-0.94449995,1.4449959)">
      <g transform="translate(1.0422575,4.1373485)">
        <g transform="translate(-9.5409145,2.1736838)" style="fill:#9a2b17;fill-opacity:1">
          <path style="fill:#9a2b17" d="M 51.112668,36.06084 C 51.09943,39.064131 51.086192,42.067421 51.072954,45.070715" />
          <path style="fill:#9a2b17" d="M 49.863281,36.054687 L 49.822266,45.064453 L 52.322266,45.076172 L 52.363281,36.066406 Z" />
          <g style="fill:#9a2b17;fill-opacity:1">
            <g style="fill:#9a2b17;fill-opacity:1">
              <path style="fill:#9a2b17;fill-rule:evenodd" d="M 51.041163,52.283145 L 44.838883,41.443201 L 57.338761,41.498299 Z" />
              <path style="fill:#9a2b17;fill-rule:evenodd" d="M 43.398437,40.603516 L 51.033203,53.949219 L 58.787109,40.671875 Z M 46.279297,42.283203 L 55.890625,42.326172 L 51.048828,50.619141 Z" />
            </g>
          </g>
        </g>
        <g transform="translate(-3.2225555,2.1678238)">
          <path style="fill:#9a2b17" d="M 76.410856,36.06084 C 68.414986,36.06084 60.419117,36.06084 52.42325,36.06084" />
          <path style="fill:#9a2b17" d="M 52.423828,34.810547 V 37.310547 H 76.410156 V 34.810547 Z" />
          <g>
            <g>
              <path style="fill:#9a2b17;fill-rule:evenodd" d="M 45.21075,36.06084 L 56.02325,29.81084 V 42.31084 Z" />
              <path style="fill:#9a2b17;fill-rule:evenodd" d="M 56.857422,28.367187 L 43.544922,36.060547 L 56.857422,43.755859 Z M 55.189453,31.255859 V 40.867187 L 46.875,36.0625 Z" />
            </g>
          </g>
        </g>
        <g transform="translate(-0.2850555,8.0877458)" style="fill:#9a2b17;fill-opacity:1">
          <path style="fill:#9a2b17" d="M 73.471978,54.59228 C 73.471978,48.984376 73.471978,43.376471 73.471978,37.768567" />
          <path style="fill:#9a2b17" d="M 72.222656,37.769531 V 54.591797 H 74.722656 V 37.769531 Z" />
          <g style="fill:#9a2b17;fill-opacity:1">
            <g style="fill:#9a2b17;fill-opacity:1">
              <path style="fill:#9a2b17;fill-rule:evenodd" d="M 73.471978,30.556067 L 79.721978,41.368567 H 67.221978 Z" />
              <path style="fill:#9a2b17;fill-rule:evenodd" d="M 73.472656,28.890625 L 65.777344,42.201172 H 81.166016 Z M 73.472656,32.220703 L 78.277344,40.535156 H 68.666016 Z" />
            </g>
          </g>
        </g>
        <g transform="translate(-9.3416965,8.0877458)">
          <path style="fill:#9a2b17" d="M 58.411498,54.59228 C 63.908233,54.59228 69.404967,54.59228 74.901702,54.59228" />
          <path style="fill:#9a2b17" d="M 58.412109,53.341797 V 55.841797 H 74.902344 V 53.341797 Z" />
          <g>
            <g>
              <path style="fill:#9a2b17;fill-rule:evenodd" d="M 82.114202,54.59228 L 71.301702,60.84228 V 48.34228 Z" />
              <path style="fill:#9a2b17;fill-rule:evenodd" d="M 70.46875,46.898437 V 62.287109 L 83.779297,54.591797 Z M 72.134766,49.787109 L 80.449219,54.59375 L 72.134766,59.398437 Z" />
            </g>
          </g>
        </g>
      </g>
    </g>
</g>
</svg>
