<svg width="50.32mm" height="50.32mm" viewBox="0 0 50.323753 50.323753" xmlns="http://www.w3.org/2000/svg">
  <g transform="translate(-7.4137669,-30.329046)">
     <path style="fill:none;stroke:#9a2b17;stroke-width:2.5;stroke-opacity:1"
           d="M 27.483358,72.621217 C 24.600227,70.842662 20.556354,67.322995 21.586044,63.466338 C 22.615733,59.609681 28.718986,55.416035 30.029501,51.5781 C 31.340015,47.740165 27.857791,44.257941 25.910344,44.334009 C 23.962896,44.410077 23.550226,48.044436 24.767132,50.6093 C 25.984038,53.174163 28.830521,54.669532 32.345022,57.109183 C 35.859523,59.548835 39.836505,62.766476 43.417175,63.198508 C 46.997845,63.630541 50.079431,61.193819 49.874275,58.270354 C 49.66912,55.346889 46.177223,51.936682 44.655934,53.432977 C 43.134645,54.929273 43.583963,61.332071 42.104953,65.656769 C 40.625943,69.981466 37.218607,72.228062 34.653744,73.332638 C 32.08888,74.437215 30.36649,74.399772 27.483358,72.621217 Z"
           transform="matrix(1.5376248,0,0,1.5376248,-22.247414,-35.542702)" />
  </g>
</svg>
